<?xml version="1.0" encoding="utf-8"?>
<!-- Generator: Adobe Illustrator 19.1.0, SVG Export Plug-In . SVG Version: 6.00 Build 0)  -->
<!DOCTYPE svg PUBLIC "-//W3C//DTD SVG 1.1//EN" "http://www.w3.org/Graphics/SVG/1.1/DTD/svg11.dtd">
<svg version="1.1" xmlns="http://www.w3.org/2000/svg" xmlns:xlink="http://www.w3.org/1999/xlink" x="0px" y="0px"
	 viewBox="0 0 418.4 64.5" enable-background="new 0 0 418.4 64.5" xml:space="preserve">
<g id="Layer_1">
	<rect fill="#3B0E3C" width="418.4" height="64.5"/>
	<g>
		<path fill="#FFFFFF" d="M68.5,46.8c4.7,0,8.8-3.7,8.8-9.8c0-6.1-4.1-10-8.8-10c-4.7,0-8.8,3.9-8.8,10
			C59.7,43.1,63.7,46.8,68.5,46.8 M68.4,15.7c12.3,0,22,8.6,22,21.3c0,12.7-9.8,21.1-22,21.1c-12.2,0-22-8.4-22-21.1
			C46.5,24.3,56.3,15.7,68.4,15.7"/>
		<path fill="#FFFFFF" d="M117,45.4c4,0,6-2.8,6-5.9s-1.9-5.7-5.9-5.7h-8.3v11.6H117z M115.8,22.7c3.5,0,5-2.5,5-5.2
			c0-2.6-1.5-4.8-5.2-4.8h-6.8v10H115.8z M95,0.9h20.7c11.3,0,19.1,5,19.1,14.7c0,4.7-2.3,9.5-6.5,12v0.2c6.5,2,8.8,7.7,8.8,12.7
			c0,12.3-10.2,16.8-21.4,16.8H95V0.9z"/>
		<path fill="#FFFFFF" d="M46.2,4.5C42.7,2.4,37.1,0,29.5,0C12.6,0,0,12.6,0,29c0,16.7,11.9,29.2,29.5,29.2c7.6,0,13.4-2.5,17.2-4.9
			l-5.6-11.3c-2.7,1.8-6.7,2.9-11.1,2.9c-10.4,0-15.3-7.8-15.3-16.2c0-8.1,4.4-15.7,15.2-15.7c3.9,0,8,1.3,10.7,2.8"/>
		<path fill="#FFFFFF" d="M165.2,23.5c-0.8,0-1.6-0.1-2.3-0.2c-0.7-0.1-1.3-0.3-1.9-0.4c-0.6-0.2-1-0.3-1.4-0.5
			c-0.4-0.1-0.7-0.2-0.9-0.2l0.2-5.2h2l0.6,3.5c0.2,0.2,0.4,0.4,0.6,0.5c0.3,0.2,0.6,0.3,0.9,0.4c0.3,0.1,0.7,0.2,1.1,0.3
			c0.4,0.1,0.8,0.1,1.2,0.1c1.4,0,2.5-0.3,3.2-0.9c0.7-0.6,1-1.5,1-2.6c0-0.6-0.1-1.1-0.3-1.5c-0.2-0.4-0.5-0.8-1-1.2
			c-0.4-0.4-0.9-0.7-1.5-1c-0.6-0.3-1.3-0.6-2-1c-0.6-0.3-1.2-0.6-1.9-1c-0.7-0.4-1.3-0.8-1.9-1.4c-0.6-0.5-1-1.2-1.4-1.9
			c-0.4-0.7-0.6-1.5-0.6-2.5c0-0.8,0.2-1.6,0.5-2.2c0.3-0.7,0.8-1.3,1.4-1.8c0.6-0.5,1.3-0.9,2.2-1.1c0.9-0.3,1.8-0.4,2.9-0.4
			c0.7,0,1.3,0,1.9,0.1c0.6,0.1,1.1,0.2,1.6,0.3c0.5,0.1,0.9,0.2,1.3,0.4c0.4,0.1,0.7,0.2,0.9,0.2l-0.2,4.8h-1.9l-0.7-3.3
			c-0.1-0.1-0.2-0.2-0.4-0.3c-0.2-0.1-0.4-0.2-0.7-0.3c-0.3-0.1-0.5-0.1-0.9-0.2c-0.3-0.1-0.7-0.1-1-0.1c-1.3,0-2.2,0.3-2.8,0.8
			S162.1,5,162.1,6c0,0.5,0.1,1,0.3,1.4c0.2,0.4,0.5,0.8,0.9,1.1c0.4,0.3,0.9,0.7,1.5,1c0.6,0.3,1.3,0.7,2.1,1.1
			c0.7,0.4,1.4,0.7,2.1,1.1c0.7,0.4,1.4,0.9,1.9,1.4c0.6,0.5,1,1.1,1.4,1.8c0.4,0.7,0.5,1.4,0.5,2.3c0,0.7-0.2,1.5-0.5,2.2
			c-0.3,0.7-0.8,1.4-1.5,2c-0.6,0.6-1.4,1.1-2.4,1.4C167.6,23.3,166.5,23.5,165.2,23.5"/>
		<polygon fill="#FFFFFF" points="175.6,23.1 175.6,21.6 177.8,21.2 177.8,3.5 175.4,3.1 175.4,1.5 190.9,1.5 191.2,6.4 189,6.4 
			188.1,3.4 181.1,3.2 181.1,11.4 186.1,11.3 186.7,9 188.4,9 188.4,15.6 186.7,15.6 186.1,13.3 181.1,13.2 181.1,21.2 185.2,21.6 
			185.2,23.1 		"/>
		<path fill="#FFFFFF" d="M209.8,23.5c-0.8,0-1.6-0.1-2.3-0.2c-0.7-0.1-1.3-0.3-1.9-0.4c-0.6-0.2-1-0.3-1.4-0.5
			c-0.4-0.1-0.7-0.2-0.9-0.2l0.2-5.2h2l0.6,3.5c0.2,0.2,0.4,0.4,0.6,0.5c0.3,0.2,0.6,0.3,0.9,0.4c0.3,0.1,0.7,0.2,1.1,0.3
			c0.4,0.1,0.8,0.1,1.2,0.1c1.4,0,2.5-0.3,3.2-0.9c0.7-0.6,1-1.5,1-2.6c0-0.6-0.1-1.1-0.3-1.5c-0.2-0.4-0.5-0.8-1-1.2
			c-0.4-0.4-0.9-0.7-1.5-1c-0.6-0.3-1.3-0.6-2-1c-0.6-0.3-1.2-0.6-1.9-1c-0.7-0.4-1.3-0.8-1.9-1.4c-0.6-0.5-1-1.2-1.4-1.9
			c-0.4-0.7-0.6-1.5-0.6-2.5c0-0.8,0.2-1.6,0.5-2.2c0.3-0.7,0.8-1.3,1.4-1.8c0.6-0.5,1.3-0.9,2.2-1.1c0.9-0.3,1.8-0.4,2.9-0.4
			c0.7,0,1.3,0,1.9,0.1c0.6,0.1,1.1,0.2,1.6,0.3c0.5,0.1,0.9,0.2,1.3,0.4c0.4,0.1,0.7,0.2,0.9,0.2L216,7.2h-1.9l-0.7-3.3
			c-0.1-0.1-0.2-0.2-0.4-0.3c-0.2-0.1-0.4-0.2-0.7-0.3c-0.3-0.1-0.5-0.1-0.9-0.2c-0.3-0.1-0.7-0.1-1-0.1c-1.3,0-2.2,0.3-2.8,0.8
			S206.7,5,206.7,6c0,0.5,0.1,1,0.3,1.4c0.2,0.4,0.5,0.8,0.9,1.1c0.4,0.3,0.9,0.7,1.5,1c0.6,0.3,1.3,0.7,2.1,1.1
			c0.7,0.4,1.4,0.7,2.1,1.1c0.7,0.4,1.4,0.9,1.9,1.4c0.6,0.5,1,1.1,1.4,1.8c0.4,0.7,0.5,1.4,0.5,2.3c0,0.7-0.2,1.5-0.5,2.2
			c-0.3,0.7-0.8,1.4-1.5,2c-0.6,0.6-1.4,1.1-2.4,1.4C212.2,23.3,211.1,23.5,209.8,23.5"/>
		<path fill="#FFFFFF" d="M221.2,20.1V9h-2.1V7.7c0.3-0.1,0.6-0.2,0.9-0.3c0.3-0.1,0.5-0.2,0.6-0.3c0.3-0.2,0.6-0.6,0.8-1.1
			c0.1-0.2,0.2-0.4,0.3-0.7c0.1-0.3,0.2-0.6,0.3-0.9c0.1-0.3,0.2-0.6,0.3-0.8c0.1-0.3,0.2-0.5,0.2-0.6h1.8V7h4.8V9h-4.8v8.5
			c0,0.8,0,1.5,0,2c0,0.5,0.1,0.8,0.2,1.1c0.1,0.2,0.3,0.4,0.5,0.4c0.2,0.1,0.5,0.1,0.9,0.1h0c0.3,0,0.6,0,0.9-0.1
			c0.3,0,0.6-0.1,0.9-0.1c0.3-0.1,0.5-0.1,0.8-0.2c0.2-0.1,0.4-0.1,0.6-0.2h0l0.5,1.4c-0.2,0.2-0.5,0.3-0.9,0.5
			c-0.4,0.2-0.8,0.4-1.3,0.5c-0.5,0.2-1,0.3-1.5,0.4c-0.5,0.1-1,0.2-1.4,0.2h0c-0.5,0-1-0.1-1.3-0.2c-0.4-0.1-0.7-0.3-1-0.6
			c-0.3-0.3-0.5-0.6-0.6-1C221.3,21.3,221.2,20.7,221.2,20.1"/>
		<path fill="#FFFFFF" d="M237.4,21.3c0.2,0,0.4,0,0.7-0.1c0.3-0.1,0.6-0.1,0.9-0.2c0.3-0.1,0.6-0.2,0.9-0.4
			c0.3-0.1,0.5-0.3,0.8-0.5v-5.2c-1.1,0-2.1,0.1-2.8,0.3c-0.8,0.2-1.4,0.5-1.8,0.8c-0.5,0.3-0.8,0.7-1,1.1c-0.2,0.4-0.3,0.9-0.3,1.3
			c0,0.5,0.1,1,0.2,1.3c0.1,0.4,0.3,0.7,0.6,0.9c0.2,0.2,0.5,0.4,0.9,0.5C236.6,21.2,237,21.3,237.4,21.3 M231.2,18.9
			c0-0.7,0.1-1.3,0.4-1.8c0.3-0.5,0.6-1,1-1.4c0.4-0.4,1-0.8,1.6-1c0.6-0.3,1.2-0.5,1.9-0.7c0.7-0.2,1.4-0.3,2.2-0.4
			c0.8-0.1,1.5-0.1,2.2-0.2v-0.8c0-0.7,0-1.2-0.1-1.7c-0.1-0.5-0.3-0.8-0.5-1.1c-0.2-0.3-0.5-0.5-0.9-0.6C238.6,9,238.1,9,237.5,9
			c-0.5,0-1,0-1.5,0.1c-0.5,0.1-1,0.2-1.5,0.3c-0.5,0.1-0.9,0.3-1.3,0.4c-0.4,0.2-0.7,0.3-1,0.4h0L231.6,9c0.2-0.2,0.5-0.4,0.9-0.7
			c0.5-0.3,1-0.5,1.6-0.8c0.6-0.2,1.3-0.5,2-0.6c0.7-0.2,1.4-0.3,2.1-0.3c1,0,1.8,0.1,2.5,0.3c0.7,0.2,1.2,0.5,1.7,1
			c0.4,0.4,0.7,1,0.9,1.7c0.2,0.7,0.3,1.6,0.3,2.6v9.2h1.8v1.4c-0.2,0-0.4,0.1-0.6,0.2c-0.3,0.1-0.5,0.1-0.8,0.2
			c-0.3,0.1-0.6,0.1-0.8,0.1c-0.3,0-0.6,0.1-0.8,0.1c-0.3,0-0.5,0-0.7,0c-0.2,0-0.4-0.1-0.5-0.2c-0.1-0.1-0.2-0.3-0.3-0.4
			c-0.1-0.2-0.1-0.5-0.1-0.8v-0.5c-0.1,0.1-0.3,0.3-0.6,0.5c-0.3,0.2-0.6,0.4-1,0.7c-0.4,0.2-0.9,0.4-1.4,0.6
			c-0.5,0.2-1.1,0.2-1.7,0.2c-0.7,0-1.3-0.1-1.9-0.3c-0.6-0.2-1.1-0.4-1.6-0.8c-0.4-0.4-0.8-0.8-1.1-1.4
			C231.4,20.4,231.2,19.7,231.2,18.9"/>
		<path fill="#FFFFFF" d="M248.8,20.1V9h-2.1V7.7c0.3-0.1,0.6-0.2,0.9-0.3c0.3-0.1,0.5-0.2,0.6-0.3c0.3-0.2,0.6-0.6,0.8-1.1
			c0.1-0.2,0.2-0.4,0.3-0.7c0.1-0.3,0.2-0.6,0.3-0.9c0.1-0.3,0.2-0.6,0.3-0.8c0.1-0.3,0.2-0.5,0.2-0.6h1.8V7h4.8V9H252v8.5
			c0,0.8,0,1.5,0,2c0,0.5,0.1,0.8,0.2,1.1c0.1,0.2,0.3,0.4,0.5,0.4c0.2,0.1,0.5,0.1,0.9,0.1h0c0.3,0,0.6,0,0.9-0.1
			c0.3,0,0.6-0.1,0.9-0.1c0.3-0.1,0.5-0.1,0.8-0.2c0.2-0.1,0.4-0.1,0.6-0.2h0l0.5,1.4c-0.2,0.2-0.5,0.3-0.9,0.5
			c-0.4,0.2-0.8,0.4-1.3,0.5c-0.5,0.2-1,0.3-1.5,0.4c-0.5,0.1-1,0.2-1.4,0.2h0c-0.5,0-1-0.1-1.3-0.2c-0.4-0.1-0.7-0.3-1-0.6
			c-0.3-0.3-0.5-0.6-0.6-1C248.9,21.3,248.8,20.7,248.8,20.1"/>
		<path fill="#FFFFFF" d="M265.2,8.3c-0.5,0-0.9,0.1-1.3,0.2c-0.4,0.2-0.8,0.4-1.1,0.8c-0.3,0.4-0.6,0.9-0.8,1.6
			c-0.2,0.7-0.3,1.5-0.4,2.5h6.6c0-0.2,0-0.4,0-0.6c0-0.2,0-0.4,0-0.6c0-0.5-0.1-1-0.2-1.5c-0.1-0.5-0.3-0.9-0.5-1.3
			c-0.2-0.4-0.6-0.7-1-0.9C266.2,8.4,265.7,8.3,265.2,8.3 M265.5,23.5c-1.2,0-2.3-0.2-3.2-0.6c-0.9-0.4-1.7-1-2.3-1.7
			c-0.6-0.7-1.1-1.6-1.4-2.7c-0.3-1-0.5-2.2-0.5-3.4c0-1.3,0.2-2.4,0.6-3.4s0.9-1.9,1.6-2.7c0.7-0.7,1.5-1.3,2.4-1.7
			c0.9-0.4,1.9-0.6,3-0.6c1.8,0,3.2,0.5,4.2,1.5c1,1,1.5,2.4,1.6,4.3c0,0.6,0,1.2,0,1.6c0,0.5-0.1,0.9-0.1,1.2h-9.8v0.1
			c0,1.1,0.2,2,0.5,2.8c0.3,0.8,0.6,1.4,1.1,1.9c0.4,0.5,0.9,0.8,1.5,1.1c0.6,0.2,1.2,0.3,1.8,0.3c0.4,0,0.8,0,1.2-0.1
			c0.4-0.1,0.8-0.2,1.2-0.3c0.4-0.1,0.7-0.3,1.1-0.4c0.3-0.2,0.6-0.3,0.8-0.5l0.6,1.4c-0.3,0.3-0.6,0.5-1,0.8
			c-0.4,0.3-0.9,0.5-1.4,0.7c-0.5,0.2-1.1,0.4-1.6,0.5C266.7,23.4,266.1,23.5,265.5,23.5"/>
		<path fill="#FFFFFF" d="M166.5,57c-1.6,0-3-0.3-4.3-0.8c-1.2-0.5-2.3-1.3-3.1-2.3c-0.9-1-1.5-2.2-1.9-3.5
			c-0.4-1.4-0.7-2.9-0.7-4.6c0-1.6,0.3-3.1,0.8-4.4c0.5-1.3,1.3-2.5,2.3-3.5c1-1,2.1-1.7,3.4-2.3c1.3-0.5,2.7-0.8,4.1-0.8
			c0.6,0,1.2,0,1.9,0.1c0.6,0.1,1.2,0.2,1.7,0.3c0.5,0.1,1,0.2,1.5,0.3c0.4,0.1,0.8,0.2,1.1,0.2l-0.3,5h-2.1l-0.8-3.3
			c-0.2-0.3-0.7-0.5-1.3-0.7c-0.6-0.2-1.4-0.3-2.5-0.3c-0.9,0-1.7,0.2-2.4,0.6c-0.7,0.4-1.4,1-1.9,1.7c-0.5,0.8-1,1.7-1.2,2.8
			c-0.3,1.1-0.4,2.4-0.4,3.8c0,1.2,0.1,2.4,0.4,3.6c0.2,1.2,0.6,2.2,1.1,3.2c0.5,0.9,1.2,1.7,2,2.2c0.8,0.6,1.8,0.8,2.9,0.8
			c0.5,0,1,0,1.4-0.1c0.4-0.1,0.7-0.1,1-0.2c0.3-0.1,0.5-0.2,0.7-0.3c0.2-0.1,0.4-0.3,0.5-0.5l1.3-2.8l1.8,0.3l-0.7,4.2
			c-0.4,0-0.8,0.1-1.1,0.2s-0.8,0.2-1.2,0.4c-0.5,0.1-1,0.3-1.6,0.4C168.1,57,167.4,57,166.5,57"/>
		<path fill="#FFFFFF" d="M182.4,55.3c1.4,0,2.3-0.5,3-1.6c0.6-1.1,1-2.7,1-4.8c0-1-0.1-1.9-0.2-2.7c-0.1-0.9-0.4-1.6-0.7-2.2
			c-0.3-0.6-0.7-1.1-1.2-1.5c-0.5-0.4-1.1-0.5-1.8-0.5c-1.4,0-2.4,0.5-3,1.6c-0.6,1.1-1,2.7-1,4.8c0,1,0.1,1.9,0.2,2.7
			c0.1,0.8,0.4,1.6,0.7,2.2c0.3,0.6,0.7,1.1,1.2,1.5C181.1,55.1,181.7,55.3,182.4,55.3 M175,48.6c0-1.3,0.2-2.5,0.7-3.6
			c0.4-1,1-1.9,1.7-2.6c0.7-0.7,1.5-1.3,2.5-1.6c0.9-0.4,1.8-0.6,2.8-0.6c1.3,0,2.4,0.2,3.3,0.7c0.9,0.4,1.7,1,2.3,1.8
			c0.6,0.8,1,1.7,1.3,2.7c0.3,1,0.4,2.1,0.4,3.3c0,1.4-0.2,2.6-0.7,3.6c-0.4,1.1-1,1.9-1.7,2.6c-0.7,0.7-1.5,1.3-2.4,1.6
			c-0.9,0.4-1.9,0.6-2.8,0.6c-1.3,0-2.4-0.2-3.3-0.7c-0.9-0.4-1.7-1-2.3-1.8c-0.6-0.8-1-1.7-1.3-2.7C175.1,50.8,175,49.7,175,48.6"
			/>
		<polygon fill="#FFFFFF" points="191.4,56.7 191.4,55.1 193.7,54.9 193.7,35.1 191.4,34.9 191.4,33.5 196.2,32.9 196.2,32.9 
			196.9,33.4 196.9,54.9 199.4,55.1 199.4,56.7 		"/>
		<polygon fill="#FFFFFF" points="201.2,56.7 201.2,55.1 203.5,54.9 203.5,35.1 201.2,34.9 201.2,33.5 205.9,32.9 206,32.9 
			206.7,33.4 206.7,54.9 209.1,55.1 209.1,56.7 		"/>
		<path fill="#FFFFFF" d="M217.4,41.8c-0.5,0-0.9,0.1-1.3,0.2c-0.4,0.2-0.8,0.4-1.1,0.8c-0.3,0.4-0.6,0.9-0.8,1.6
			c-0.2,0.7-0.3,1.5-0.4,2.5h6.6c0-0.2,0-0.4,0-0.6c0-0.2,0-0.4,0-0.6c0-0.5-0.1-1-0.2-1.5c-0.1-0.5-0.3-0.9-0.5-1.3
			c-0.2-0.4-0.6-0.7-1-0.9C218.5,41.9,218,41.8,217.4,41.8 M217.8,57c-1.2,0-2.3-0.2-3.2-0.6s-1.7-1-2.3-1.7
			c-0.6-0.7-1.1-1.6-1.4-2.7c-0.3-1-0.5-2.2-0.5-3.4c0-1.3,0.2-2.4,0.6-3.4c0.4-1,0.9-1.9,1.6-2.7c0.7-0.7,1.5-1.3,2.4-1.7
			c0.9-0.4,1.9-0.6,3-0.6c1.8,0,3.2,0.5,4.2,1.5c1,1,1.5,2.4,1.6,4.3c0,0.6,0,1.2,0,1.6c0,0.5-0.1,0.9-0.1,1.2h-9.8v0.1
			c0,1.1,0.2,2,0.5,2.8c0.3,0.8,0.6,1.4,1.1,1.9c0.4,0.5,0.9,0.8,1.5,1.1c0.6,0.2,1.2,0.3,1.8,0.3c0.4,0,0.8,0,1.2-0.1
			c0.4-0.1,0.8-0.2,1.2-0.3c0.4-0.1,0.7-0.3,1.1-0.4c0.3-0.2,0.6-0.3,0.8-0.5l0.6,1.4c-0.3,0.3-0.6,0.5-1,0.8
			c-0.4,0.3-0.9,0.5-1.4,0.7c-0.5,0.2-1.1,0.4-1.6,0.5C219,57,218.4,57,217.8,57"/>
		<path fill="#FFFFFF" d="M233.1,49.2L233.1,49.2c0.6,0,1.1-0.1,1.4-0.3c0.4-0.2,0.7-0.4,0.9-0.7c0.2-0.3,0.4-0.7,0.5-1.2
			c0.1-0.5,0.2-1,0.2-1.6c0-1.3-0.3-2.2-0.8-2.8c-0.5-0.6-1.3-0.9-2.4-0.9h0c-0.5,0-0.9,0.1-1.3,0.2c-0.4,0.1-0.7,0.3-1,0.6
			c-0.3,0.3-0.5,0.6-0.6,1.1c-0.2,0.4-0.2,1-0.2,1.7c0,0.5,0.1,1,0.2,1.5c0.1,0.5,0.3,0.9,0.5,1.3c0.3,0.4,0.6,0.7,1,0.9
			C231.9,49.1,232.5,49.2,233.1,49.2 M232.5,56.8c-0.5,0-0.9,0-1.4-0.1c-0.4,0-0.8-0.1-1.2-0.2c-0.2,0.3-0.4,0.6-0.6,1.1
			c-0.2,0.4-0.3,0.9-0.3,1.6c0,1.2,0.4,2.1,1.1,2.7c0.7,0.6,1.9,1,3.4,1h0c0.7,0,1.3-0.1,1.9-0.2c0.6-0.1,1.2-0.4,1.6-0.6
			c0.5-0.3,0.8-0.6,1.1-1.1c0.3-0.4,0.4-0.9,0.4-1.5c0-0.5,0-0.8-0.1-1.2c-0.1-0.3-0.3-0.6-0.5-0.8c-0.3-0.2-0.6-0.4-1.1-0.5
			c-0.5-0.1-1.1-0.1-1.8-0.1H232.5z M225.9,59.9c0-0.5,0.1-1,0.2-1.4c0.2-0.4,0.4-0.8,0.6-1.1s0.5-0.6,0.9-0.8
			c0.3-0.2,0.6-0.4,1-0.6c-0.5-0.3-0.8-0.6-1.1-1c-0.3-0.4-0.4-0.9-0.4-1.5c0-0.4,0.1-0.7,0.2-1.1c0.1-0.3,0.3-0.6,0.5-0.9
			c0.2-0.3,0.4-0.5,0.7-0.7c0.3-0.2,0.6-0.4,0.9-0.6c-0.9-0.4-1.6-1-2.1-1.8c-0.5-0.8-0.8-1.7-0.8-2.8c0-0.9,0.2-1.7,0.6-2.3
			c0.4-0.7,0.9-1.3,1.5-1.7s1.3-0.8,2.1-1.1c0.8-0.3,1.6-0.4,2.5-0.4h0c1,0,1.9,0.1,2.8,0.4c0.8,0.2,1.5,0.6,2.1,1.1
			c0.1-0.1,0.3-0.3,0.5-0.4c0.2-0.2,0.5-0.3,0.8-0.5c0.3-0.2,0.6-0.3,1-0.4c0.4-0.1,0.7-0.2,1.1-0.2h0.6v2.8H239
			c0.3,0.6,0.5,1.4,0.5,2.2c0,0.9-0.2,1.7-0.5,2.4c-0.4,0.7-0.8,1.3-1.4,1.8c-0.6,0.5-1.3,0.9-2.1,1.2c-0.8,0.3-1.7,0.4-2.6,0.4h0
			c-0.7,0-1.4-0.1-2-0.2c-0.3,0.2-0.5,0.5-0.7,0.7c-0.2,0.3-0.3,0.6-0.3,1c0,0.4,0.1,0.7,0.2,0.9c0.1,0.2,0.4,0.4,0.6,0.5
			c0.3,0.1,0.6,0.2,1,0.2c0.4,0,0.9,0.1,1.4,0.1h3.1c1.9,0,3.3,0.4,4.2,1.1c0.9,0.7,1.3,1.8,1.3,3.3c0,0.8-0.2,1.6-0.6,2.3
			c-0.4,0.7-1,1.4-1.7,1.9c-0.7,0.6-1.6,1-2.6,1.3c-1,0.3-2.1,0.5-3.4,0.5h0c-1.2,0-2.3-0.1-3.2-0.3c-0.9-0.2-1.7-0.5-2.3-1
			c-0.6-0.4-1.1-0.9-1.4-1.5C226.1,61.2,225.9,60.6,225.9,59.9"/>
		<path fill="#FFFFFF" d="M249.8,41.8c-0.5,0-0.9,0.1-1.3,0.2c-0.4,0.2-0.8,0.4-1.1,0.8c-0.3,0.4-0.6,0.9-0.8,1.6
			c-0.2,0.7-0.3,1.5-0.4,2.5h6.6c0-0.2,0-0.4,0-0.6c0-0.2,0-0.4,0-0.6c0-0.5-0.1-1-0.2-1.5c-0.1-0.5-0.3-0.9-0.5-1.3
			c-0.2-0.4-0.6-0.7-1-0.9C250.9,41.9,250.4,41.8,249.8,41.8 M250.2,57c-1.2,0-2.3-0.2-3.2-0.6c-0.9-0.4-1.7-1-2.3-1.7
			c-0.6-0.7-1.1-1.6-1.4-2.7c-0.3-1-0.5-2.2-0.5-3.4c0-1.3,0.2-2.4,0.6-3.4c0.4-1,0.9-1.9,1.6-2.7c0.7-0.7,1.5-1.3,2.4-1.7
			c0.9-0.4,1.9-0.6,3-0.6c1.8,0,3.2,0.5,4.2,1.5c1,1,1.5,2.4,1.6,4.3c0,0.6,0,1.2,0,1.6c0,0.5-0.1,0.9-0.1,1.2h-9.8v0.1
			c0,1.1,0.2,2,0.5,2.8c0.3,0.8,0.6,1.4,1.1,1.9c0.4,0.5,0.9,0.8,1.5,1.1c0.6,0.2,1.2,0.3,1.8,0.3c0.4,0,0.8,0,1.2-0.1
			c0.4-0.1,0.8-0.2,1.2-0.3c0.4-0.1,0.7-0.3,1.1-0.4c0.3-0.2,0.6-0.3,0.8-0.5l0.6,1.4c-0.3,0.3-0.6,0.5-1,0.8
			c-0.4,0.3-0.9,0.5-1.4,0.7c-0.5,0.2-1.1,0.4-1.6,0.5C251.3,57,250.7,57,250.2,57"/>
		<path fill="#FFFFFF" d="M269.9,54.9c0.4,0.2,0.8,0.3,1.4,0.3c0.5,0,1-0.1,1.5-0.4c0.4-0.3,0.8-0.6,1.2-1c0.3-0.4,0.6-0.9,0.9-1.5
			c0.7-1.6,1.1-3.4,1.1-5.4c0-2.4-0.6-4-1.8-4.7c-0.4-0.2-0.8-0.3-1.4-0.3c-0.5,0-1,0.1-1.5,0.4c-0.4,0.3-0.8,0.6-1.2,1
			c-0.3,0.4-0.6,0.9-0.9,1.5c-0.7,1.6-1.1,3.4-1.1,5.4C268.1,52.7,268.7,54.2,269.9,54.9 M268.4,56.6c-2.2-0.9-3.2-3-3.2-6.3
			c0-2.5,0.7-4.8,2.2-6.8c1-1.3,2.2-2.3,3.6-2.8c0.7-0.3,1.5-0.4,2.3-0.4c0.8,0,1.6,0.1,2.3,0.4c0.7,0.3,1.3,0.7,1.8,1.3
			c1,1.2,1.5,2.8,1.5,5c0,2.6-0.7,4.9-2.2,6.9c-1,1.3-2.2,2.3-3.6,2.8c-0.7,0.3-1.5,0.4-2.3,0.4C269.8,57,269.1,56.8,268.4,56.6"/>
		<path fill="#FFFFFF" d="M283.3,42.3h-2l0.2-1.1l2.1-0.9l0.2-1c0.3-1.7,1-3.2,2.2-4.5c1.2-1.2,2.4-1.9,3.7-1.9
			c0.9,0,1.7,0.1,2.2,0.4l-0.8,2.4l-0.3-0.2c-0.5-0.3-1-0.5-1.5-0.5s-0.9,0.1-1.2,0.3c-0.3,0.2-0.5,0.5-0.7,0.8
			c-0.4,0.7-0.7,1.6-0.9,2.9l-0.2,1.2h3.3l-0.2,2h-3.4l-1.9,15.2c-0.2,1.9-0.9,3.5-1.9,4.6c-1,1.2-2.3,1.8-3.8,1.8
			c-0.9,0-1.5-0.1-2-0.2l0.8-2.4c0.9,0.4,1.7,0.5,2.3,0.5c0.8,0,1.4-1.1,1.7-3.4L283.3,42.3z"/>
		<path fill="#FFFFFF" d="M304,46.4v8.5c0.1,0.1,0.3,0.1,0.5,0.2c0.2,0,0.4,0.1,0.7,0.1c0.3,0,0.5,0,0.8,0c0.3,0,0.5,0,0.8,0
			c1,0,1.8-0.1,2.5-0.3c0.7-0.2,1.2-0.5,1.7-0.9c0.4-0.4,0.8-0.8,0.9-1.4c0.2-0.5,0.3-1.2,0.3-1.9c0-0.8-0.1-1.4-0.3-2
			c-0.2-0.5-0.5-1-0.9-1.3c-0.4-0.4-0.9-0.6-1.6-0.8c-0.6-0.2-1.4-0.2-2.3-0.2h-0.8h-0.9c-0.3,0-0.6,0-0.8,0
			C304.4,46.4,304.2,46.4,304,46.4 M304,36.7v7.8c0.2,0,0.4,0,0.6,0c0.2,0,0.5,0,0.8,0h0.8h0.6c1.4,0,2.5-0.3,3.1-1
			c0.6-0.7,1-1.7,1-3.1c0-0.7-0.1-1.2-0.2-1.7c-0.1-0.5-0.4-0.9-0.7-1.2c-0.3-0.3-0.8-0.6-1.4-0.7c-0.6-0.2-1.3-0.2-2.1-0.2
			c-0.7,0-1.2,0-1.6,0.1C304.5,36.7,304.2,36.7,304,36.7 M298.4,56.7v-1.6l2.4-0.4V37.1l-2.3-0.4v-1.6h3.9c0.4,0,0.9,0,1.2,0
			c0.4,0,0.7,0,1.1-0.1c0.3,0,0.7,0,1-0.1c0.3,0,0.7,0,1.1,0c1.3,0,2.4,0.1,3.4,0.3c0.9,0.2,1.7,0.5,2.3,0.9s1,0.9,1.3,1.5
			c0.3,0.6,0.4,1.3,0.4,2.1c0,0.7-0.1,1.3-0.3,1.9c-0.2,0.6-0.5,1.1-0.8,1.6c-0.4,0.5-0.8,0.9-1.3,1.2c-0.5,0.3-1.1,0.6-1.8,0.7
			c0.9,0,1.7,0.1,2.4,0.3c0.7,0.2,1.3,0.6,1.8,1c0.5,0.4,0.9,1,1.2,1.6c0.3,0.6,0.4,1.3,0.4,2.1c0,0.9-0.1,1.7-0.4,2.5
			c-0.3,0.8-0.8,1.5-1.4,2.1c-0.7,0.6-1.6,1.1-2.7,1.5c-1.1,0.4-2.5,0.6-4.2,0.6c-0.4,0-0.7,0-1,0c-0.3,0-0.6,0-1-0.1
			c-0.3,0-0.7,0-1.1-0.1c-0.4,0-0.9,0-1.5,0H298.4z"/>
		<path fill="#FFFFFF" d="M330.9,57c-0.6,0-1.1-0.1-1.4-0.3c-0.3-0.2-0.5-0.6-0.5-1.2v-0.6c-0.3,0.2-0.6,0.5-0.9,0.7
			c-0.4,0.3-0.8,0.5-1.2,0.7c-0.4,0.2-0.9,0.4-1.4,0.5c-0.5,0.1-1,0.2-1.5,0.2c-0.9,0-1.6-0.1-2.3-0.3c-0.6-0.2-1.2-0.6-1.6-1.1
			c-0.4-0.5-0.7-1.1-0.9-1.9c-0.2-0.8-0.3-1.8-0.3-2.9v-8.1l-1.6-0.6v-1.4l4.1-0.5h0l0.6,0.4v10c0,0.8,0,1.4,0.1,2
			c0.1,0.5,0.2,1,0.4,1.3c0.2,0.3,0.5,0.6,0.9,0.7c0.4,0.2,0.9,0.2,1.4,0.2c0.4,0,0.8,0,1.2-0.1c0.4-0.1,0.7-0.2,1-0.3
			c0.3-0.1,0.6-0.3,0.8-0.4c0.2-0.2,0.5-0.3,0.6-0.4v-11l-2-0.6v-1.4l4.3-0.4h0l0.8,0.4v14.5h1.7v1.4c-0.3,0.1-0.7,0.2-1.2,0.3
			C331.9,57,331.4,57,330.9,57"/>
		<path fill="#FFFFFF" d="M336,55.8v-3.7h2l0.6,2.1c0.1,0.2,0.2,0.3,0.4,0.4c0.2,0.1,0.5,0.3,0.7,0.4c0.3,0.1,0.6,0.2,1,0.3
			c0.4,0.1,0.7,0.1,1.1,0.1c0.6,0,1.1-0.1,1.4-0.2c0.4-0.1,0.7-0.3,0.9-0.5c0.2-0.2,0.4-0.5,0.4-0.7c0.1-0.3,0.1-0.6,0.1-0.9
			c0-0.4-0.1-0.7-0.2-1c-0.2-0.3-0.4-0.6-0.8-0.9c-0.3-0.3-0.8-0.5-1.3-0.8c-0.5-0.3-1.2-0.5-1.9-0.8c-0.8-0.3-1.4-0.6-2-0.9
			c-0.6-0.3-1-0.7-1.4-1.1c-0.4-0.4-0.6-0.9-0.8-1.4c-0.2-0.5-0.3-1.1-0.3-1.7c0-0.7,0.1-1.2,0.4-1.8c0.3-0.5,0.7-1,1.2-1.4
			c0.5-0.4,1.1-0.7,1.9-0.9c0.7-0.2,1.5-0.3,2.3-0.3c0.6,0,1.1,0,1.6,0.1c0.5,0.1,0.9,0.2,1.3,0.3c0.4,0.1,0.7,0.2,1,0.3
			c0.3,0.1,0.5,0.2,0.7,0.2v3.5l-1.9,0l-0.6-1.8c-0.1-0.2-0.4-0.5-0.8-0.7c-0.4-0.2-0.9-0.3-1.6-0.3c-0.5,0-0.9,0-1.3,0.1
			c-0.4,0.1-0.6,0.2-0.9,0.4c-0.2,0.2-0.4,0.4-0.5,0.6c-0.1,0.2-0.2,0.5-0.2,0.8c0,0.5,0.1,0.9,0.3,1.2c0.2,0.3,0.5,0.6,0.9,0.8
			c0.4,0.2,0.8,0.4,1.2,0.6c0.5,0.2,0.9,0.4,1.4,0.6c0.7,0.3,1.3,0.6,1.9,0.9c0.6,0.3,1.1,0.7,1.6,1.1c0.5,0.4,0.8,0.9,1.1,1.4
			c0.3,0.5,0.4,1.2,0.4,1.9c0,0.7-0.1,1.4-0.4,2c-0.3,0.6-0.7,1.1-1.2,1.5c-0.5,0.4-1.2,0.7-1.9,1c-0.8,0.2-1.6,0.3-2.6,0.3
			c-0.5,0-1,0-1.6-0.1c-0.5-0.1-1.1-0.2-1.6-0.3c-0.5-0.1-1-0.3-1.4-0.4C336.6,56,336.2,55.9,336,55.8"/>
		<path fill="#FFFFFF" d="M352.9,37.5c-0.3,0-0.5,0-0.8-0.1c-0.2-0.1-0.4-0.2-0.6-0.4c-0.2-0.2-0.3-0.4-0.4-0.6
			c-0.1-0.2-0.1-0.5-0.1-0.8c0-0.3,0-0.6,0.1-0.9c0.1-0.3,0.2-0.5,0.4-0.7c0.2-0.2,0.4-0.4,0.7-0.5c0.3-0.1,0.6-0.2,0.9-0.2h0
			c0.3,0,0.6,0.1,0.8,0.2c0.2,0.1,0.4,0.3,0.6,0.4c0.2,0.2,0.3,0.4,0.4,0.6c0.1,0.2,0.1,0.5,0.1,0.7c0,0.3,0,0.6-0.1,0.9
			c-0.1,0.3-0.2,0.5-0.4,0.7c-0.2,0.2-0.4,0.4-0.7,0.5C353.6,37.5,353.3,37.5,352.9,37.5L352.9,37.5z M349.5,56.7v-1.6l2.3-0.2V43.1
			l-2-0.6v-1.7l4.3-0.6h0.1l0.8,0.6v14.2l2.3,0.2v1.6H349.5z"/>
		<path fill="#FFFFFF" d="M359.2,56.7v-1.6l1.9-0.2V43.1l-2-0.6v-1.7l4-0.6h0.1l0.7,0.6v1.1l0,0.6c0.3-0.3,0.7-0.6,1.2-0.8
			c0.5-0.3,0.9-0.5,1.5-0.7c0.5-0.2,1.1-0.4,1.6-0.5c0.5-0.1,1.1-0.2,1.6-0.2c0.9,0,1.7,0.1,2.3,0.4c0.6,0.3,1.1,0.7,1.4,1.2
			c0.3,0.5,0.6,1.2,0.7,2.1c0.1,0.8,0.2,1.9,0.2,3.1v8l2.1,0.2v1.6h-7.1v-1.6l1.9-0.2v-8c0-0.8,0-1.4-0.1-2c-0.1-0.6-0.2-1-0.4-1.4
			c-0.2-0.4-0.5-0.7-0.9-0.9c-0.4-0.2-0.9-0.3-1.5-0.3c-0.7,0-1.4,0.1-2.2,0.4c-0.7,0.3-1.4,0.6-1.9,1v11.1l2,0.2v1.6H359.2z"/>
		<path fill="#FFFFFF" d="M384.2,41.8c-0.5,0-0.9,0.1-1.3,0.2c-0.4,0.2-0.8,0.4-1.1,0.8c-0.3,0.4-0.6,0.9-0.8,1.6
			c-0.2,0.7-0.3,1.5-0.4,2.5h6.6c0-0.2,0-0.4,0-0.6c0-0.2,0-0.4,0-0.6c0-0.5-0.1-1-0.2-1.5c-0.1-0.5-0.3-0.9-0.5-1.3
			c-0.2-0.4-0.6-0.7-1-0.9C385.2,41.9,384.8,41.8,384.2,41.8 M384.5,57c-1.2,0-2.3-0.2-3.2-0.6c-0.9-0.4-1.7-1-2.3-1.7
			c-0.6-0.7-1.1-1.6-1.4-2.7c-0.3-1-0.5-2.2-0.5-3.4c0-1.3,0.2-2.4,0.6-3.4c0.4-1,0.9-1.9,1.6-2.7c0.7-0.7,1.5-1.3,2.4-1.7
			c0.9-0.4,1.9-0.6,3-0.6c1.8,0,3.2,0.5,4.2,1.5c1,1,1.5,2.4,1.6,4.3c0,0.6,0,1.2,0,1.6c0,0.5-0.1,0.9-0.1,1.2h-9.8v0.1
			c0,1.1,0.2,2,0.5,2.8c0.3,0.8,0.6,1.4,1.1,1.9s0.9,0.8,1.5,1.1c0.6,0.2,1.2,0.3,1.8,0.3c0.4,0,0.8,0,1.2-0.1
			c0.4-0.1,0.8-0.2,1.2-0.3c0.4-0.1,0.7-0.3,1.1-0.4c0.3-0.2,0.6-0.3,0.8-0.5l0.6,1.4c-0.3,0.3-0.6,0.5-1,0.8
			c-0.4,0.3-0.9,0.5-1.4,0.7c-0.5,0.2-1.1,0.4-1.6,0.5C385.7,57,385.1,57,384.5,57"/>
		<path fill="#FFFFFF" d="M393.1,55.8v-3.7h2l0.6,2.1c0.1,0.2,0.2,0.3,0.4,0.4c0.2,0.1,0.5,0.3,0.7,0.4c0.3,0.1,0.6,0.2,1,0.3
			c0.4,0.1,0.7,0.1,1.1,0.1c0.6,0,1.1-0.1,1.4-0.2c0.4-0.1,0.7-0.3,0.9-0.5c0.2-0.2,0.4-0.5,0.4-0.7c0.1-0.3,0.1-0.6,0.1-0.9
			c0-0.4-0.1-0.7-0.2-1c-0.2-0.3-0.4-0.6-0.8-0.9c-0.3-0.3-0.8-0.5-1.3-0.8c-0.5-0.3-1.2-0.5-1.9-0.8c-0.8-0.3-1.4-0.6-2-0.9
			c-0.6-0.3-1-0.7-1.4-1.1c-0.4-0.4-0.6-0.9-0.8-1.4c-0.2-0.5-0.3-1.1-0.3-1.7c0-0.7,0.1-1.2,0.4-1.8c0.3-0.5,0.7-1,1.2-1.4
			c0.5-0.4,1.1-0.7,1.9-0.9c0.7-0.2,1.5-0.3,2.3-0.3c0.6,0,1.1,0,1.6,0.1c0.5,0.1,0.9,0.2,1.3,0.3c0.4,0.1,0.7,0.2,1,0.3
			c0.3,0.1,0.5,0.2,0.7,0.2v3.5l-1.9,0l-0.6-1.8c-0.1-0.2-0.4-0.5-0.8-0.7c-0.4-0.2-0.9-0.3-1.6-0.3c-0.5,0-0.9,0-1.3,0.1
			c-0.4,0.1-0.6,0.2-0.9,0.4c-0.2,0.2-0.4,0.4-0.5,0.6c-0.1,0.2-0.2,0.5-0.2,0.8c0,0.5,0.1,0.9,0.3,1.2c0.2,0.3,0.5,0.6,0.9,0.8
			c0.4,0.2,0.8,0.4,1.2,0.6c0.5,0.2,0.9,0.4,1.4,0.6c0.7,0.3,1.3,0.6,1.9,0.9c0.6,0.3,1.1,0.7,1.6,1.1c0.5,0.4,0.8,0.9,1.1,1.4
			c0.3,0.5,0.4,1.2,0.4,1.9c0,0.7-0.1,1.4-0.4,2c-0.3,0.6-0.7,1.1-1.2,1.5c-0.5,0.4-1.2,0.7-1.9,1c-0.8,0.2-1.6,0.3-2.6,0.3
			c-0.5,0-1,0-1.6-0.1c-0.5-0.1-1.1-0.2-1.6-0.3c-0.5-0.1-1-0.3-1.4-0.4C393.6,56,393.3,55.9,393.1,55.8"/>
		<path fill="#FFFFFF" d="M406.7,55.8v-3.7h2l0.6,2.1c0.1,0.2,0.2,0.3,0.4,0.4c0.2,0.1,0.5,0.3,0.7,0.4c0.3,0.1,0.6,0.2,1,0.3
			c0.4,0.1,0.7,0.1,1.1,0.1c0.6,0,1.1-0.1,1.4-0.2c0.4-0.1,0.7-0.3,0.9-0.5c0.2-0.2,0.4-0.5,0.4-0.7c0.1-0.3,0.1-0.6,0.1-0.9
			c0-0.4-0.1-0.7-0.2-1c-0.2-0.3-0.4-0.6-0.8-0.9c-0.3-0.3-0.8-0.5-1.3-0.8c-0.5-0.3-1.2-0.5-1.9-0.8c-0.8-0.3-1.4-0.6-2-0.9
			c-0.6-0.3-1-0.7-1.4-1.1c-0.4-0.4-0.6-0.9-0.8-1.4c-0.2-0.5-0.3-1.1-0.3-1.7c0-0.7,0.1-1.2,0.4-1.8c0.3-0.5,0.7-1,1.2-1.4
			c0.5-0.4,1.1-0.7,1.9-0.9c0.7-0.2,1.5-0.3,2.3-0.3c0.6,0,1.1,0,1.6,0.1s0.9,0.2,1.3,0.3c0.4,0.1,0.7,0.2,1,0.3
			c0.3,0.1,0.5,0.2,0.7,0.2v3.5l-1.9,0l-0.6-1.8c-0.1-0.2-0.4-0.5-0.8-0.7c-0.4-0.2-0.9-0.3-1.6-0.3c-0.5,0-0.9,0-1.3,0.1
			c-0.4,0.1-0.6,0.2-0.9,0.4c-0.2,0.2-0.4,0.4-0.5,0.6c-0.1,0.2-0.2,0.5-0.2,0.8c0,0.5,0.1,0.9,0.3,1.2c0.2,0.3,0.5,0.6,0.9,0.8
			c0.4,0.2,0.8,0.4,1.2,0.6c0.5,0.2,0.9,0.4,1.4,0.6c0.7,0.3,1.3,0.6,1.9,0.9c0.6,0.3,1.1,0.7,1.6,1.1c0.5,0.4,0.8,0.9,1.1,1.4
			c0.3,0.5,0.4,1.2,0.4,1.9c0,0.7-0.1,1.4-0.4,2c-0.3,0.6-0.7,1.1-1.2,1.5c-0.5,0.4-1.2,0.7-1.9,1c-0.8,0.2-1.6,0.3-2.6,0.3
			c-0.5,0-1,0-1.6-0.1c-0.5-0.1-1.1-0.2-1.6-0.3c-0.5-0.1-1-0.3-1.4-0.4C407.3,56,407,55.9,406.7,55.8"/>
	</g>
</g>
<g id="Layer_2">
</g>
</svg>
